<?xml version="1.0" standalone="no"?>
<!DOCTYPE svg PUBLIC "-//W3C//DTD SVG 20010904//EN"
 "http://www.w3.org/TR/2001/REC-SVG-20010904/DTD/svg10.dtd">
<svg version="1.0" xmlns="http://www.w3.org/2000/svg"
 width="320.000000pt" height="320.000000pt" viewBox="0 0 320.000000 320.000000"
 preserveAspectRatio="xMidYMid meet">

<g transform="translate(0.000000,320.000000) scale(0.100000,-0.100000)"
fill="#000000" stroke="none">
<path d="M1415 3064 c-243 -32 -464 -119 -670 -262 -113 -79 -297 -266 -374
-382 -125 -189 -201 -379 -242 -610 -19 -106 -17 -371 4 -487 117 -645 638
-1143 1284 -1228 147 -19 227 -19 380 0 471 58 879 335 1122 760 97 170 154
352 179 567 14 125 14 165 4 279 -32 360 -173 666 -426 927 -324 334 -800 499
-1261 436z m144 -232 c24 -72 47 -132 50 -132 4 0 27 60 53 133 l45 132 64 -3
c35 -2 67 -7 70 -10 4 -4 11 -99 15 -210 l9 -204 -49 7 c-28 3 -53 8 -58 11
-4 3 -8 62 -8 132 0 69 -4 122 -8 116 -5 -5 -28 -64 -52 -131 l-42 -123 -38 0
-38 0 -38 108 c-61 174 -59 173 -62 25 -3 -132 -3 -133 -26 -133 -13 0 -38 -3
-55 -6 l-31 -6 1 98 c1 55 4 149 8 209 l6 110 55 6 c30 3 62 5 70 5 9 -1 30
-47 59 -134z m991 -217 c38 -39 41 -29 -43 -140 -25 -33 -44 -61 -42 -63 1 -2
48 17 103 42 l101 44 36 -39 c19 -21 35 -42 35 -45 0 -5 -40 -56 -121 -156
-16 -21 -28 -38 -26 -38 3 0 48 20 101 45 54 25 100 45 104 45 12 0 53 -83 45
-91 -7 -6 -101 -50 -300 -140 l-62 -28 -25 46 c-14 25 -23 50 -19 57 4 6 40
55 81 109 41 54 72 101 69 103 -2 2 -50 -19 -107 -46 -137 -68 -147 -69 -188
-28 l-32 34 122 162 c67 89 125 162 128 162 3 0 21 -16 40 -35z m-1786 -36
c17 -13 28 -34 32 -60 5 -29 10 -37 17 -30 17 17 79 13 113 -8 43 -26 60 -71
45 -119 -11 -38 -226 -316 -239 -310 -12 5 -312 239 -316 247 -4 7 158 216
212 274 33 35 96 38 136 6z m1008 -113 c350 -68 608 -308 711 -661 28 -96 30
-339 4 -435 -119 -433 -485 -708 -917 -687 -171 9 -279 41 -429 130 -284 169
-448 486 -427 826 25 405 310 734 711 822 99 22 249 24 347 5z"/>
<path d="M649 2473 c-45 -51 -111 -134 -108 -136 2 -1 18 -12 36 -25 18 -12
35 -22 38 -22 12 0 115 151 115 169 0 19 -26 41 -47 41 -5 0 -20 -12 -34 -27z"/>
<path d="M779 2368 c-13 -18 -42 -55 -65 -82 l-43 -49 36 -29 36 -28 63 82
c65 82 74 104 52 126 -22 22 -56 13 -79 -20z"/>
<path d="M1515 2319 c-259 -37 -496 -223 -595 -468 -27 -67 -42 -128 -55 -223
l-6 -48 375 0 376 0 0 -375 0 -375 43 5 c157 21 255 55 366 130 192 129 306
322 336 568 l6 47 -376 0 -375 0 0 375 c0 351 -1 375 -17 374 -10 -1 -45 -5
-78 -10z"/>
</g>
</svg>
